<?xml version="1.0" standalone="no"?>
<!DOCTYPE svg PUBLIC "-//W3C//DTD SVG 20010904//EN"
 "http://www.w3.org/TR/2001/REC-SVG-20010904/DTD/svg10.dtd">
<svg version="1.0" xmlns="http://www.w3.org/2000/svg"
 width="174.000000pt" height="174.000000pt" viewBox="0 0 174.000000 174.000000"
 preserveAspectRatio="xMidYMid meet">

<g transform="translate(0.000000,174.000000) scale(0.100000,-0.100000)"
fill="#000000" stroke="none">
<path d="M870 1555 c-74 -14 -81 -16 -170 -58 -98 -45 -201 -133 -264 -225
l-28 -41 -117 -3 c-108 -3 -116 -4 -116 -23 0 -18 8 -20 98 -23 108 -3 110 -5
80 -67 -12 -26 -14 -38 -6 -46 21 -21 38 -3 77 77 41 84 88 147 148 202 47 43
119 92 136 92 6 0 12 4 12 8 0 14 162 61 230 67 135 13 306 -29 413 -102 23
-15 74 -59 112 -98 75 -75 127 -165 162 -280 25 -83 25 -248 0 -330 -23 -74
-69 -175 -79 -175 -4 0 -8 -7 -8 -15 0 -19 -130 -151 -187 -188 -155 -105
-378 -133 -563 -70 -79 27 -189 92 -229 137 -26 28 -71 36 -71 12 0 -32 101
-115 190 -157 105 -50 127 -57 218 -70 348 -49 665 153 773 493 33 103 33 291
1 394 -110 354 -450 559 -812 489z"/>
<path d="M987 1353 c-4 -3 -7 -116 -7 -249 l0 -243 72 -58 c40 -32 88 -73 107
-90 40 -36 81 -44 81 -15 0 19 2 17 -115 112 -44 35 -83 69 -87 75 -4 5 -8
115 -8 243 0 218 -1 232 -18 232 -10 0 -22 -3 -25 -7z"/>
<path d="M37 913 c-4 -3 -7 -14 -7 -24 0 -17 13 -19 138 -21 l137 -3 3 -47 c3
-50 20 -72 46 -62 14 5 17 17 14 58 l-3 51 123 3 c121 3 123 3 120 25 l-3 22
-281 3 c-154 1 -283 -1 -287 -5z"/>
<path d="M1520 884 c-11 -12 -10 -18 3 -32 16 -15 18 -15 34 0 13 14 14 20 3
32 -7 9 -16 16 -20 16 -4 0 -13 -7 -20 -16z"/>
<path d="M164 595 c-10 -24 6 -35 52 -35 40 0 44 2 44 25 0 23 -4 25 -45 25
-31 0 -47 -5 -51 -15z"/>
<path d="M380 585 l0 -25 173 0 c94 0 178 4 186 9 8 5 11 16 8 25 -6 14 -31
16 -187 16 l-180 0 0 -25z"/>
<path d="M983 364 c-3 -8 -1 -20 5 -26 16 -16 42 -2 42 22 0 24 -38 28 -47 4z"/>
</g>
</svg>
