<svg width="30" height="26" viewBox="0 0 30 26" fill="none" xmlns="http://www.w3.org/2000/svg">
    <g clip-path="url(#clip0_1_196)">
        <path d="M29.0056 3.08734C28.2024 4.38509 27.2053 5.52288 26.0569 6.45217L26.0215 6.47925C26.0333 6.66848 26.0392 6.95267 26.0392 7.33184C26.0372 9.16256 25.7908 10.983 25.3079 12.7344L25.3393 12.6023C24.8523 14.4176 24.1224 16.1425 23.1739 17.7199L23.2132 17.6495C22.2771 19.2363 21.1418 20.6687 19.8413 21.9038L19.8178 21.9254C18.441 23.1999 16.8685 24.192 15.1748 24.8548L15.0688 24.8905C13.3363 25.5925 11.3357 25.9977 9.24984 25.9977H9.1183H9.12517H9.00051C5.65324 25.9977 2.53762 24.8981 -0.0636292 23.0077L-0.00178806 23.0499C0.409504 23.1019 0.885582 23.1312 1.36853 23.1312H1.43724H1.43332L1.557 23.1323C4.31236 23.1323 6.84392 22.076 8.83756 20.3091L8.81498 20.3286C7.58203 20.3032 6.38654 19.8565 5.39325 19.0499C4.39996 18.2434 3.65776 17.1167 3.26892 15.8252L3.25714 15.7786C3.59285 15.8403 3.98156 15.8772 4.37715 15.8804H4.38009C4.92274 15.8811 5.46306 15.8024 5.98698 15.6464L5.94379 15.6573C4.60568 15.3657 3.40132 14.569 2.53762 13.4039L2.52977 13.392C1.653 12.2502 1.17315 10.8012 1.17614 9.30459L1.17712 9.21359V9.21792V9.13667C1.99526 9.64894 2.91382 9.93444 3.85395 9.96867H3.86475C3.06745 9.38057 2.40995 8.58954 1.94768 7.66225L1.93197 7.62867C1.45811 6.66862 1.21131 5.59217 1.21442 4.49892C1.21442 3.27909 1.51479 2.13725 2.03897 1.15792L2.02424 1.18825C3.48435 3.17099 5.29658 4.8031 7.34945 5.98417L7.4427 6.03292C9.42751 7.18884 11.7637 7.92117 14.2423 8.05225L14.2796 8.05334C14.1828 7.56142 14.1338 7.05954 14.1333 6.55617C14.1347 5.24092 14.4939 3.95533 15.1644 2.86797C15.8348 1.78061 16.7857 0.940491 17.8938 0.456428C19.0019 -0.0276346 20.2162 -0.133334 21.3793 0.153021C22.5425 0.439377 23.6009 1.10459 24.4176 2.0625L24.4205 2.06575C25.7708 1.7803 27.0646 1.23306 28.2419 0.44942L28.1899 0.48192C27.7607 1.99358 26.8392 3.27611 25.6034 4.08184L25.5759 4.09809C26.7856 3.94998 27.9673 3.59662 29.0792 3.0505L29.0036 3.08409L29.0056 3.08734Z" fill="#61FFCA"/>
    </g>
    <defs>
        <clipPath id="clip0_1_196">
            <rect width="30" height="26" fill="white"/>
        </clipPath>
    </defs>
</svg>