<?xml version="1.0" ?>
<svg xmlns="http://www.w3.org/2000/svg" xmlns:ev="http://www.w3.org/2001/xml-events" xmlns:xlink="http://www.w3.org/1999/xlink" baseProfile="full" height="600px" version="1.1" viewBox="7.615499999999999 -14.9845 159.769 202.969" width="473px">
	<defs/>
	<path d="M 70.0,127.0 L 69.0,128.0 L 68.0,128.0 L 67.0,129.0 L 66.0,129.0 L 63.0,132.0 L 63.0,140.0 L 65.0,142.0 L 65.0,143.0 L 66.0,143.0 L 67.0,144.0 L 69.0,144.0 L 70.0,145.0 L 72.0,145.0 L 73.0,146.0 L 72.0,147.0 L 64.0,147.0 L 63.0,146.0 L 60.0,146.0 L 59.0,145.0 L 58.0,145.0 L 57.0,144.0 L 53.0,144.0 L 52.0,143.0 L 51.0,143.0 L 50.0,142.0 L 47.0,142.0 L 46.0,141.0 L 45.0,141.0 L 44.0,140.0 L 41.0,140.0 L 40.0,139.0 L 39.0,139.0 L 38.0,138.0 L 30.0,138.0 L 27.0,141.0 L 27.0,149.0 L 30.0,152.0 L 32.0,152.0 L 34.0,154.0 L 36.0,154.0 L 38.0,156.0 L 40.0,156.0 L 42.0,158.0 L 43.0,158.0 L 44.0,159.0 L 45.0,159.0 L 47.0,161.0 L 49.0,161.0 L 51.0,163.0 L 52.0,163.0 L 53.0,164.0 L 54.0,164.0 L 55.0,165.0 L 56.0,165.0 L 57.0,166.0 L 58.0,166.0 L 59.0,167.0 L 63.0,167.0 L 64.0,168.0 L 66.0,168.0 L 67.0,169.0 L 73.0,169.0 L 74.0,170.0 L 76.0,170.0 L 77.0,171.0 L 84.0,171.0 L 85.0,170.0 L 86.0,170.0 L 87.0,169.0 L 92.0,169.0 L 93.0,168.0 L 95.0,168.0 L 96.0,167.0 L 100.0,167.0 L 101.0,166.0 L 103.0,166.0 L 104.0,165.0 L 124.0,165.0 L 125.0,166.0 L 125.0,171.0 L 151.0,171.0 L 152.0,170.0 L 152.0,132.0 L 151.0,131.0 L 125.0,131.0 L 125.0,136.0 L 124.0,137.0 L 113.0,137.0 L 112.0,136.0 L 109.0,136.0 L 108.0,135.0 L 105.0,135.0 L 104.0,134.0 L 103.0,134.0 L 102.0,133.0 L 100.0,133.0 L 99.0,132.0 L 98.0,132.0 L 97.0,131.0 L 92.0,131.0 L 91.0,130.0 L 87.0,130.0 L 86.0,129.0 L 78.0,129.0 L 77.0,128.0 L 73.0,128.0 L 72.0,127.0" fill="none" stroke="#000000" stroke-width="0.169"/>
	<path d="M 86.0,110.0 L 86.0,111.0 L 85.0,112.0 L 85.0,116.0 L 93.0,116.0 L 93.0,110.0 L 90.0,110.0 L 89.0,111.0 L 88.0,110.0" fill="none" stroke="#000000" stroke-width="0.169"/>
	<path d="M 102.0,108.0 L 101.0,109.0 L 100.0,109.0 L 99.0,110.0 L 99.0,115.0 L 100.0,116.0 L 101.0,116.0 L 102.0,115.0 L 103.0,115.0 L 104.0,114.0 L 107.0,114.0 L 108.0,113.0 L 107.0,112.0 L 107.0,111.0 L 106.0,110.0 L 106.0,109.0 L 105.0,108.0" fill="none" stroke="#000000" stroke-width="0.169"/>
	<path d="M 73.0,108.0 L 72.0,109.0 L 72.0,111.0 L 71.0,112.0 L 71.0,114.0 L 74.0,114.0 L 75.0,115.0 L 77.0,115.0 L 78.0,116.0 L 79.0,115.0 L 79.0,113.0 L 80.0,112.0 L 80.0,110.0 L 79.0,110.0 L 78.0,109.0 L 77.0,109.0 L 76.0,108.0" fill="none" stroke="#000000" stroke-width="0.169"/>
	<path d="M 38.0,68.0 L 37.0,69.0 L 36.0,69.0 L 35.0,70.0 L 33.0,70.0 L 31.0,72.0 L 30.0,72.0 L 26.0,76.0 L 26.0,77.0 L 23.0,80.0 L 23.0,83.0 L 22.0,84.0 L 22.0,86.0 L 21.0,87.0 L 21.0,97.0 L 22.0,98.0 L 22.0,100.0 L 23.0,101.0 L 23.0,103.0 L 25.0,105.0 L 25.0,106.0 L 26.0,107.0 L 26.0,108.0 L 30.0,112.0 L 31.0,112.0 L 32.0,113.0 L 33.0,113.0 L 34.0,114.0 L 35.0,114.0 L 36.0,115.0 L 37.0,115.0 L 38.0,116.0 L 54.0,116.0 L 55.0,115.0 L 56.0,115.0 L 57.0,114.0 L 58.0,114.0 L 60.0,112.0 L 61.0,112.0 L 66.0,107.0 L 66.0,106.0 L 67.0,105.0 L 67.0,104.0 L 69.0,102.0 L 69.0,98.0 L 70.0,97.0 L 70.0,86.0 L 69.0,85.0 L 69.0,82.0 L 68.0,81.0 L 68.0,80.0 L 66.0,78.0 L 66.0,77.0 L 61.0,72.0 L 60.0,72.0 L 58.0,70.0 L 57.0,70.0 L 56.0,69.0 L 55.0,69.0 L 54.0,68.0" fill="none" stroke="#000000" stroke-width="0.169"/>
	<path d="M 122.0,65.0 L 121.0,66.0 L 120.0,66.0 L 118.0,68.0 L 116.0,68.0 L 110.0,74.0 L 110.0,75.0 L 108.0,77.0 L 108.0,78.0 L 107.0,79.0 L 107.0,80.0 L 106.0,81.0 L 106.0,97.0 L 107.0,98.0 L 107.0,99.0 L 108.0,100.0 L 108.0,101.0 L 109.0,102.0 L 109.0,103.0 L 110.0,104.0 L 110.0,105.0 L 111.0,105.0 L 112.0,106.0 L 112.0,107.0 L 115.0,110.0 L 116.0,110.0 L 117.0,111.0 L 118.0,111.0 L 119.0,112.0 L 121.0,112.0 L 122.0,113.0 L 124.0,113.0 L 125.0,114.0 L 135.0,114.0 L 136.0,113.0 L 138.0,113.0 L 139.0,112.0 L 141.0,112.0 L 143.0,110.0 L 144.0,110.0 L 145.0,109.0 L 146.0,109.0 L 148.0,107.0 L 148.0,106.0 L 149.0,105.0 L 150.0,105.0 L 150.0,104.0 L 152.0,102.0 L 152.0,100.0 L 153.0,99.0 L 153.0,98.0 L 154.0,97.0 L 154.0,81.0 L 153.0,80.0 L 153.0,79.0 L 152.0,78.0 L 152.0,77.0 L 150.0,75.0 L 150.0,74.0 L 144.0,68.0 L 142.0,68.0 L 140.0,66.0 L 139.0,66.0 L 138.0,65.0" fill="none" stroke="#000000" stroke-width="0.169"/>
	<path d="M 134.0,53.0 L 133.0,54.0 L 131.0,54.0 L 131.0,60.0 L 132.0,61.0 L 138.0,61.0 L 138.0,59.0 L 137.0,58.0 L 137.0,53.0" fill="none" stroke="#000000" stroke-width="0.169"/>
	<path d="M 42.0,53.0 L 42.0,55.0 L 41.0,56.0 L 41.0,58.0 L 40.0,59.0 L 40.0,60.0 L 41.0,61.0 L 46.0,61.0 L 47.0,60.0 L 47.0,58.0 L 48.0,57.0 L 48.0,54.0 L 47.0,54.0 L 46.0,53.0" fill="none" stroke="#000000" stroke-width="0.169"/>
	<path d="M 128.0,40.0 L 126.0,42.0 L 125.0,42.0 L 125.0,44.0 L 126.0,45.0 L 126.0,46.0 L 127.0,47.0 L 127.0,48.0 L 128.0,49.0 L 129.0,49.0 L 130.0,48.0 L 132.0,48.0 L 133.0,47.0 L 133.0,44.0 L 132.0,43.0 L 132.0,42.0 L 131.0,41.0 L 131.0,40.0" fill="none" stroke="#000000" stroke-width="0.169"/>
	<path d="M 48.0,40.0 L 48.0,41.0 L 46.0,43.0 L 46.0,44.0 L 45.0,45.0 L 45.0,46.0 L 47.0,48.0 L 51.0,48.0 L 51.0,47.0 L 52.0,46.0 L 52.0,45.0 L 53.0,44.0 L 54.0,44.0 L 54.0,42.0 L 53.0,42.0 L 51.0,40.0" fill="none" stroke="#000000" stroke-width="0.169"/>
	<path d="M 119.0,29.0 L 119.0,30.0 L 116.0,33.0 L 116.0,34.0 L 117.0,35.0 L 118.0,35.0 L 119.0,36.0 L 119.0,37.0 L 120.0,37.0 L 121.0,38.0 L 122.0,38.0 L 125.0,35.0 L 125.0,34.0 L 124.0,33.0 L 124.0,32.0 L 123.0,32.0 L 122.0,31.0 L 122.0,30.0 L 121.0,29.0" fill="none" stroke="#000000" stroke-width="0.169"/>
	<path d="M 57.0,29.0 L 57.0,30.0 L 53.0,34.0 L 53.0,35.0 L 54.0,35.0 L 57.0,38.0 L 58.0,38.0 L 63.0,33.0 L 61.0,31.0 L 61.0,30.0 L 60.0,29.0" fill="none" stroke="#000000" stroke-width="0.169"/>
	<path d="M 84.0,2.0 L 83.0,3.0 L 81.0,3.0 L 80.0,4.0 L 78.0,4.0 L 77.0,5.0 L 76.0,5.0 L 73.0,8.0 L 72.0,8.0 L 72.0,9.0 L 71.0,10.0 L 70.0,10.0 L 70.0,11.0 L 68.0,13.0 L 68.0,14.0 L 67.0,15.0 L 67.0,16.0 L 66.0,17.0 L 66.0,18.0 L 65.0,19.0 L 65.0,35.0 L 66.0,36.0 L 66.0,37.0 L 68.0,39.0 L 68.0,40.0 L 69.0,41.0 L 69.0,42.0 L 73.0,46.0 L 74.0,46.0 L 76.0,48.0 L 77.0,48.0 L 79.0,50.0 L 83.0,50.0 L 84.0,51.0 L 95.0,51.0 L 96.0,50.0 L 99.0,50.0 L 100.0,49.0 L 101.0,49.0 L 102.0,48.0 L 103.0,48.0 L 110.0,41.0 L 110.0,40.0 L 112.0,38.0 L 112.0,36.0 L 113.0,35.0 L 113.0,33.0 L 114.0,32.0 L 114.0,21.0 L 113.0,20.0 L 113.0,19.0 L 112.0,18.0 L 112.0,15.0 L 110.0,13.0 L 110.0,12.0 L 104.0,6.0 L 103.0,6.0 L 101.0,4.0 L 98.0,4.0 L 97.0,3.0 L 96.0,3.0 L 95.0,2.0" fill="none" stroke="#000000" stroke-width="0.169"/>
</svg>
