<svg width="31" height="25" viewBox="0 0 31 25" fill="none" xmlns="http://www.w3.org/2000/svg">
    <path d="M26.1021 2.7729C24.1625 1.86874 22.0625 1.21249 19.875 0.833319C19.8558 0.832706 19.8367 0.836305 19.8191 0.843864C19.8015 0.851423 19.7857 0.862758 19.7729 0.877069C19.5104 1.35832 19.2042 1.9854 19 2.46665C16.6798 2.11665 14.3202 2.11665 12 2.46665C11.7958 1.97082 11.4896 1.35832 11.2125 0.877069C11.1979 0.847903 11.1542 0.833319 11.1104 0.833319C8.92292 1.21249 6.83751 1.86874 4.88334 2.7729C4.86876 2.7729 4.85417 2.78749 4.83959 2.80207C0.872925 8.73749 -0.220825 14.5125 0.318758 20.2292C0.318758 20.2583 0.333341 20.2875 0.362508 20.3021C2.98751 22.2271 5.51042 23.3937 8.00417 24.1667C8.04792 24.1812 8.09167 24.1667 8.10626 24.1375C8.68959 23.3354 9.21459 22.4896 9.66667 21.6C9.69584 21.5417 9.66667 21.4833 9.60834 21.4687C8.77709 21.1479 7.98959 20.7687 7.21668 20.3312C7.15834 20.3021 7.15834 20.2146 7.20209 20.1708C7.36251 20.0542 7.52292 19.9229 7.68334 19.8062C7.71251 19.7771 7.75626 19.7771 7.78542 19.7917C12.8021 22.0812 18.2125 22.0812 23.1708 19.7917C23.2 19.7771 23.2438 19.7771 23.2729 19.8062C23.4333 19.9375 23.5938 20.0542 23.7542 20.1854C23.8125 20.2292 23.8125 20.3167 23.7396 20.3458C22.9813 20.7979 22.1792 21.1625 21.3479 21.4833C21.2896 21.4979 21.275 21.5708 21.2896 21.6146C21.7563 22.5042 22.2813 23.35 22.85 24.1521C22.8938 24.1667 22.9375 24.1812 22.9813 24.1667C25.4896 23.3937 28.0125 22.2271 30.6375 20.3021C30.6667 20.2875 30.6813 20.2583 30.6813 20.2292C31.3229 13.6229 29.6167 7.89165 26.1604 2.80207C26.1458 2.78749 26.1313 2.7729 26.1021 2.7729ZM10.425 16.7437C8.92293 16.7437 7.66876 15.3583 7.66876 13.6521C7.66876 11.9458 8.89376 10.5604 10.425 10.5604C11.9708 10.5604 13.1958 11.9604 13.1813 13.6521C13.1813 15.3583 11.9563 16.7437 10.425 16.7437ZM20.5896 16.7437C19.0875 16.7437 17.8333 15.3583 17.8333 13.6521C17.8333 11.9458 19.0583 10.5604 20.5896 10.5604C22.1354 10.5604 23.3604 11.9604 23.3458 13.6521C23.3458 15.3583 22.1354 16.7437 20.5896 16.7437Z" fill="#61FFCA"/>
</svg>
